<svg xmlns="http://www.w3.org/2000/svg" xmlns:xlink="http://www.w3.org/1999/xlink" version="1.1" x="0px" y="0px" viewBox="0 0 24 30" enable-background="new 0 0 24 24" xml:space="preserve"><g><path d="M19,1H5v7l4,4l-4,4v7h14v-7l-4-4l4-4V1z M18,7.586l-3.707,3.707L13.586,12l0.707,0.707L18,16.414V22H6v-5.586l3.707-3.707   L10.414,12l-0.707-0.707L6,7.586V2h12V7.586z"/><polygon points="17,7 17,5 7,5 7,7 12,12  "/><polygon points="7,21 17,21 17,20 12,18 7,20  "/></g><text x="0" y="39" fill="#000000" font-size="5px" font-weight="bold" font-family="'Helvetica Neue', Helvetica, Arial-Unicode, Arial, Sans-serif">Created by Plainicon</text><text x="0" y="44" fill="#000000" font-size="5px" font-weight="bold" font-family="'Helvetica Neue', Helvetica, Arial-Unicode, Arial, Sans-serif">from the Noun Project</text></svg>