<?xml version="1.0" encoding="UTF-8" standalone="no"?>
<!-- Created with Inkscape (http://www.inkscape.org/) -->
<svg
   xmlns:svg="http://www.w3.org/2000/svg"
   xmlns="http://www.w3.org/2000/svg"
   version="1.0"
   width="60"
   height="60"
   id="svg2">
  <defs
     id="defs4" />
  <path
     d="M 0,0 L 0,60 L 60,60 L 60,0 L 0,0 z M 29.625,11 C 35.861826,11 39.003953,11.524021 43.53125,13.375 C 49.007417,15.613918 53.44731,19.46075 55,23.3125 C 56.002261,25.798808 56.000645,29.642845 55,32.09375 C 53.074625,36.809609 47.120595,41.271755 40.1875,43.21875 C 34.728856,44.751685 27.239088,45.017157 21.75,43.84375 L 19.625,43.375 L 19.3125,44.75 C 18.908351,46.546573 16.788977,49.038872 14.75,50.15625 C 11.333078,52.028746 7.0964611,52.549907 4.875,51.34375 C 3.5316292,50.614357 2.53125,49.685548 2.53125,49.21875 C 2.5312501,49.076808 3.0922674,48.873992 3.78125,48.75 C 5.6446255,48.414665 8.4258992,46.432371 9.4375,44.71875 C 10.096656,43.602155 10.325487,42.765489 10.40625,41.21875 L 10.5,39.1875 L 8.53125,37.625 C 7.4531564,36.765042 6.0859229,35.264779 5.46875,34.28125 C 0.59408454,26.512984 4.8645455,17.825499 15.75,13.375 C 20.277297,11.524021 23.388175,11 29.625,11 z M 15.71875,18.8125 C 14.546866,18.812515 13.434237,19.026055 12.34375,19.46875 C 11.25325,19.911471 10.289058,20.536471 9.46875,21.34375 C 8.6484345,22.157563 8.0052059,23.082041 7.5625,24.15625 C 7.1197901,25.230477 6.9062486,26.377611 6.90625,27.5625 C 6.9062486,28.792973 7.1263006,29.929039 7.5625,31 C 7.9986955,32.070964 8.6354136,33.029948 9.46875,33.84375 C 10.302079,34.65755 11.244786,35.261065 12.3125,35.6875 C 13.3802,36.113929 14.514314,36.343747 15.71875,36.34375 C 16.708322,36.343747 17.695953,36.179033 18.65625,35.84375 C 19.616523,35.508461 20.498684,35.006508 21.3125,34.375 L 20.28125,32.8125 C 19.701809,33.333333 18.976548,33.72526 18.15625,34.03125 C 17.335926,34.337238 16.539052,34.499999 15.71875,34.5 C 14.76171,34.499999 13.843091,34.335285 13,34 C 12.156895,33.664713 11.432286,33.16927 10.78125,32.53125 C 10.123694,31.880209 9.5983032,31.130861 9.25,30.28125 C 8.9016894,29.431644 8.7499969,28.532557 8.75,27.5625 C 8.7499969,26.384121 8.9941372,25.293628 9.53125,24.28125 C 10.068355,23.26889 10.817703,22.450532 11.78125,21.8125 C 12.367181,21.428397 13.028639,21.136079 13.71875,20.9375 C 14.408846,20.738944 15.119782,20.625013 15.875,20.625 C 16.955718,20.625013 17.947255,20.851574 18.875,21.28125 C 19.802721,21.710948 20.600247,22.29949 21.21875,23.09375 C 21.602849,23.56902 21.873683,24.117847 22.0625,24.6875 C 22.251286,25.257169 22.343734,25.848965 22.34375,26.5 C 22.343734,27.52214 22.118474,28.376958 21.65625,29.03125 C 21.193995,29.68555 20.557278,30.063805 19.75,30.1875 L 19.75,23.40625 L 17.71875,23.40625 L 17.71875,24.6875 C 17.523425,24.225269 17.21418,23.885425 16.78125,23.625 C 16.348296,23.364592 15.829417,23.218759 15.25,23.21875 C 14.13671,23.218759 13.234367,23.623707 12.53125,24.4375 C 11.828119,25.251309 11.468744,26.322923 11.46875,27.625 C 11.468744,28.927087 11.831374,29.970706 12.53125,30.78125 C 13.231112,31.591798 14.1302,32.000001 15.25,32 C 15.829417,32.000001 16.348295,31.882163 16.78125,31.625 C 17.214181,31.36784 17.523424,30.993491 17.71875,30.53125 L 17.71875,32.03125 L 18.09375,32.03125 C 20.027329,32.031251 21.532537,31.539064 22.59375,30.5625 C 23.65493,29.585941 24.187483,28.233078 24.1875,26.46875 C 24.187482,25.648445 24.063131,24.870451 23.8125,24.125 C 23.561831,23.379567 23.175765,22.669281 22.6875,22.03125 C 21.886703,20.983085 20.878892,20.181654 19.6875,19.625 C 18.496081,19.068374 17.177071,18.812515 15.71875,18.8125 z M 45.15625,19.09375 L 45.15625,25.8125 L 45.75,30.6875 L 48.78125,30.6875 L 49.375,25.8125 L 49.375,19.09375 L 45.15625,19.09375 z M 32.09375,20.5625 L 32.09375,25.6875 L 27.6875,23.125 L 26.28125,25.5 L 30.71875,28.0625 L 26.28125,30.625 L 27.6875,33.03125 L 32.09375,30.46875 L 32.09375,35.59375 L 34.90625,35.59375 L 34.90625,30.46875 L 39.3125,33.03125 L 40.71875,30.625 L 36.28125,28.0625 L 40.71875,25.5 L 39.3125,23.125 L 34.90625,25.6875 L 34.90625,20.5625 L 32.09375,20.5625 z M 15.59375,25.03125 C 16.179677,25.031258 16.651683,25.259774 17,25.71875 C 17.348296,26.177741 17.499989,26.805995 17.5,27.59375 C 17.499988,28.388025 17.345039,29.034509 17,29.5 C 16.654937,29.965498 16.204417,30.187503 15.625,30.1875 C 15.039053,30.187503 14.560538,29.962242 14.21875,29.5 C 13.876945,29.037764 13.718742,28.394535 13.71875,27.59375 C 13.718742,26.805995 13.876945,26.177741 14.21875,25.71875 C 14.560538,25.259774 15.020824,25.031258 15.59375,25.03125 z M 45.15625,32.40625 L 45.15625,36.59375 L 49.375,36.59375 L 49.375,32.40625 L 45.15625,32.40625 z"
     id="rect2383"
     style="fill:#000000;fill-opacity:1;fill-rule:nonzero;stroke:#000000;stroke-width:0;stroke-linecap:round;stroke-linejoin:miter;stroke-miterlimit:4;stroke-dasharray:none;stroke-opacity:0.86666667" />
</svg>
